<?xml version="1.0" encoding="UTF-8"?>
<svg version="1.1" xmlns="http://www.w3.org/2000/svg" width="1024" height="1024">
<path d="M0 0 C337.92 0 675.84 0 1024 0 C1024 337.92 1024 675.84 1024 1024 C686.08 1024 348.16 1024 0 1024 C0 686.08 0 348.16 0 0 Z " fill="#893F9C" transform="translate(0,0)"/>
<path d="M0 0 C337.92 0 675.84 0 1024 0 C1024 337.92 1024 675.84 1024 1024 C686.08 1024 348.16 1024 0 1024 C0 686.08 0 348.16 0 0 Z M439 79 C437.31825684 79.27287842 437.31825684 79.27287842 435.60253906 79.55126953 C389.61559965 87.06358854 344.55486452 103.04391673 304 126 C303.21963379 126.44102051 302.43926758 126.88204102 301.63525391 127.33642578 C282.39579255 138.31990271 264.16113028 150.99777229 247 165 C245.58074219 166.13115234 245.58074219 166.13115234 244.1328125 167.28515625 C237.70047893 172.45106721 231.60005937 177.92946795 225.56787109 183.54980469 C223.96953781 185.02817587 222.35622257 186.48844409 220.73828125 187.9453125 C213.373524 194.60280022 206.60063698 201.58946891 200 209 C199.24203125 209.81984375 198.4840625 210.6396875 197.703125 211.484375 C149.13599862 264.18487384 116.02973651 332.05464697 102 402 C101.69182221 403.47925339 101.383283 404.95843157 101.07421875 406.4375 C99.53349931 414.14899833 98.4116281 421.89426679 97.375 429.6875 C97.25165283 430.61401367 97.12830566 431.54052734 97.0012207 432.49511719 C95.49811361 444.2828055 94.83879642 456.00265965 94.796875 467.8828125 C94.79117493 469.17653778 94.78547485 470.47026306 94.77960205 471.80319214 C94.76918749 474.53107076 94.76328527 477.25892081 94.75976562 479.98681641 C94.75541875 482.72067894 94.74165638 485.45421914 94.71875 488.18798828 C94.52403183 511.94762157 96.02008408 535.28955453 100.75 558.625 C101.00604004 559.91220947 101.26208008 561.19941895 101.52587891 562.52563477 C104.03046746 574.87709682 107.2765213 586.96483235 111 599 C111.30131836 599.98484375 111.60263672 600.9696875 111.91308594 601.984375 C116.89971236 618.11043886 123.16034488 633.57796873 130 649 C130.35030273 649.79986328 130.70060547 650.59972656 131.06152344 651.42382812 C143.21348828 679.03407922 159.68079402 705.10656805 178 729 C178.50305664 729.6614502 179.00611328 730.32290039 179.52441406 731.00439453 C184.90004584 738.05923341 190.46391979 744.81475536 196.515625 751.3046875 C198.41139886 753.36142329 200.23469213 755.4415573 202.05078125 757.56640625 C206.58155886 762.76257696 211.46065484 767.61055644 216.3425293 772.47290039 C217.93458966 774.05959946 219.5212299 775.65157742 221.10742188 777.24414062 C226.56702898 782.70726332 232.12314779 787.98402675 238 793 C239.5448126 794.4132355 241.08695325 795.82940409 242.625 797.25 C275.74685083 827.04454162 316.55774885 850.0394716 358 866 C359.66095703 866.64291992 359.66095703 866.64291992 361.35546875 867.29882812 C398.02228691 881.32587201 435.95356988 889.52150702 475 893 C476.08547119 893.10586426 476.08547119 893.10586426 477.19287109 893.21386719 C507.21901248 896.11146265 538.21430334 894.10143758 568 890 C568.94762207 889.87286621 569.89524414 889.74573242 570.87158203 889.61474609 C609.39978332 884.30539669 646.87942124 872.56001973 682 856 C683.41635742 855.33315186 683.41635742 855.33315186 684.86132812 854.65283203 C722.01528667 836.98598274 755.34629122 813.46044147 785.39892578 785.48339844 C787.12065012 783.88821743 788.85471127 782.30714317 790.58984375 780.7265625 C802.18103959 770.11448001 813.06653379 758.9450808 822.875 746.6484375 C825.11143259 743.86111894 827.42806856 741.1538621 829.75 738.4375 C884.92590966 672.22640841 918.87323148 583.19100086 919.203125 496.89453125 C919.20882507 495.6910051 919.21452515 494.48747894 919.22039795 493.2474823 C919.22977417 490.71390643 919.23635222 488.18031876 919.24023438 485.64672852 C919.24986254 481.86646861 919.28092696 478.08677181 919.3125 474.30664062 C919.66392665 393.0906497 892.0345617 311.35569058 844 246 C843.49968262 245.31421875 842.99936523 244.6284375 842.48388672 243.921875 C833.01852704 230.97280049 822.81733071 218.84326724 812 207 C810.69869141 205.54207031 810.69869141 205.54207031 809.37109375 204.0546875 C797.92593965 191.32021795 785.4450739 179.60055897 772 169 C770.89813659 168.09700457 769.79797922 167.19192477 768.69921875 166.28515625 C724.23808571 129.78439319 670.68335492 102.4392937 615 88 C613.87609863 87.70641602 612.75219727 87.41283203 611.59423828 87.11035156 C596.82800992 83.3139581 582.07590641 80.33434626 567 78.125 C565.94634247 77.96967804 565.94634247 77.96967804 564.87139893 77.81121826 C550.878456 75.77602323 536.97183018 74.84952941 522.828125 74.76171875 C521.51862885 74.75197021 520.20913269 74.74222168 518.85995483 74.73217773 C514.65664564 74.7049979 510.45338721 74.69375768 506.25 74.6875 C505.1768819 74.68555319 505.1768819 74.68555319 504.08208466 74.68356705 C482.13234268 74.65338958 460.67892251 75.21691301 439 79 Z " fill="#161616" transform="translate(0,0)"/>
<path d="M0 0 C2.07933841 2.07933841 2.64453679 3.30567932 3.6640625 6.0078125 C4.13380493 7.22839355 4.13380493 7.22839355 4.61303711 8.47363281 C4.94698486 9.34858398 5.28093262 10.22353516 5.625 11.125 C9.24914775 20.38201892 13.32454249 29.23213161 18 38 C18.51167725 38.97332275 18.51167725 38.97332275 19.03369141 39.96630859 C33.44297703 67.22113342 53.81148212 90.93916501 78 110 C80.98702657 112.5038311 83.96240209 115.02107599 86.9375 117.5390625 C90.0031654 120.00254363 93.18518503 122.16693322 96.4375 124.375 C102.69286071 129.04817039 104.879459 133.60864928 107 141 C107.54720703 142.65322266 107.54720703 142.65322266 108.10546875 144.33984375 C112.01019507 157.54825011 112.29056674 171.3188969 113 185 C113.50789063 184.38511719 114.01578125 183.77023437 114.5390625 183.13671875 C119.36507836 177.47021698 122.8779865 173.59082194 130.515625 172.49609375 C139.15986862 172.36046231 145.45951143 173.0229243 152 179 C165.03033096 194.30370785 164.14588542 214.56601301 162.82568359 233.5 C161.49745374 246.69394623 155.43304007 262.24559571 145 271 C137.71748951 276.15699308 131.18799944 279.30995917 122.125 279.125 C120.97257812 279.10695313 119.82015625 279.08890625 118.6328125 279.0703125 C117.32957031 279.03550781 117.32957031 279.03550781 116 279 C115.90058105 279.64759277 115.80116211 280.29518555 115.69873047 280.96240234 C107.27757498 331.66046034 75.19358406 377.07114649 33.98681641 406.61767578 C29.13932054 409.99031299 24.0948859 413.01780303 19 416 C18.09636719 416.56589844 17.19273437 417.13179687 16.26171875 417.71484375 C14 419 14 419 12 419 C12.08202119 423.41736228 12.19475514 427.83345697 12.3125 432.25 C12.33505859 433.48492188 12.35761719 434.71984375 12.38085938 435.9921875 C12.68568831 446.52264172 13.77615375 458.08531593 20 467 C21.07187593 467.84801978 22.1556591 468.68117551 23.25 469.5 C26.09923916 472.15398673 26.43653405 474.63735418 26.61791992 478.46801758 C26.66249662 491.65503496 22.76946904 502.35358788 15 513 C14.57332031 513.61101563 14.14664062 514.22203125 13.70703125 514.8515625 C-1.47313878 534.56242943 -29.09257239 543.95682635 -52.6796875 547.5625 C-84.1598564 551.24980372 -118.00080551 545.2254602 -143.25390625 525.3046875 C-156.84658361 513.89689285 -165.32115099 500.80088728 -167.33984375 483.00390625 C-167.55715366 477.1539235 -166.52680816 473.86654707 -162.60546875 469.41796875 C-155.85900548 461.30513317 -154.08271857 451.27960393 -153 441 C-152.89518311 440.15840332 -152.79036621 439.31680664 -152.68237305 438.44970703 C-151.07741941 427.45086602 -151.07741941 427.45086602 -154.21875 417.30322266 C-157.64599129 414.41898491 -161.73077968 412.81030084 -165.81396484 411.05761719 C-169.66106293 409.19636759 -172.94464957 406.60718632 -176.3125 404 C-176.99054688 403.48195801 -177.66859375 402.96391602 -178.3671875 402.43017578 C-183.83618238 398.21203957 -189.02428591 393.79411869 -194 389 C-194.58217285 388.44892578 -195.1643457 387.89785156 -195.76416016 387.33007812 C-210.22050527 373.59673193 -222.57109613 358.62096686 -232 341 C-232.41958984 340.22076172 -232.83917969 339.44152344 -233.27148438 338.63867188 C-242.70313585 320.8080315 -251.44639747 299.99550321 -255 280 C-255.82242188 279.97421875 -256.64484375 279.9484375 -257.4921875 279.921875 C-270.72643105 279.2494654 -278.89420643 275.78321419 -288 266 C-301.57774337 249.07152597 -303.80881698 225.87024284 -301.79785156 204.89111328 C-300.28832491 193.70067893 -296.06513192 183.49152754 -287.06640625 176.37109375 C-281.20795762 172.48391895 -275.00277799 170.79422366 -268 172 C-260.53529075 174.47297116 -255.56487285 178.67618532 -251 185 C-250.67 185.66 -250.34 186.32 -250 187 C-249.90203125 185.73027344 -249.8040625 184.46054687 -249.703125 183.15234375 C-247.31289532 154.74655515 -247.31289532 154.74655515 -241 148 C-238.68394469 146.90343371 -236.51326484 146.01701986 -234.10546875 145.1875 C-233.41447083 144.93733124 -232.7234729 144.68716248 -232.01153564 144.42941284 C-230.52011432 143.89056645 -229.0266676 143.3573 -227.53146362 142.82904053 C-223.53701545 141.41623728 -219.55869424 139.9591588 -215.578125 138.5078125 C-214.36442482 138.06708908 -214.36442482 138.06708908 -213.12620544 137.61746216 C-200.62502134 133.06466293 -188.30655759 128.05180314 -176 123 C-174.88866699 122.54415527 -173.77733398 122.08831055 -172.63232422 121.61865234 C-117.33296649 98.82806728 -53.51270838 70.24858321 -15 22 C-14.18660156 20.989375 -13.37320312 19.97875 -12.53515625 18.9375 C-7.77134366 12.93068634 -3.39215935 6.90929298 0 0 Z " fill="#FECF9E" transform="translate(577,206)"/>
<path d="M0 0 C1.11569323 1.0714587 2.20424338 2.17268062 3.25 3.3125 C6.72580416 6.63150096 10.73560229 6.63695995 15.3125 7 C43.43435845 9.23102196 68.93901801 26.04943456 87.4375 46.6875 C88.63395826 48.11755249 89.82007755 49.55627374 91 51 C91.41830078 51.49532227 91.83660156 51.99064453 92.26757812 52.50097656 C150.33368141 121.2677178 159.882382 216.70593709 165.43261719 311.58374023 C166.2612981 325.97453741 167.13220382 340.35819624 168.1875 354.734375 C168.238316 355.42720392 168.289132 356.12003284 168.34148788 356.83385658 C168.5489714 359.65972994 168.75686604 362.48557281 168.96510124 365.31139088 C181.23820633 532.04118369 181.23820633 532.04118369 174.625 589.0625 C174.5115625 590.14208984 174.398125 591.22167969 174.28125 592.33398438 C171.95061215 613.04938785 171.95061215 613.04938785 168 617 C167.32195313 616.23816406 166.64390625 615.47632813 165.9453125 614.69140625 C131.85992146 576.69852979 76.03666438 559.91429525 26.97460938 550.53173828 C17.8462398 548.75600151 12.512645 545.52741881 7 538 C1.66572352 528.06720931 1.72755644 517.38790003 1.875 506.375 C1.88402344 505.08464844 1.89304687 503.79429687 1.90234375 502.46484375 C1.9257152 499.30969751 1.95847909 496.15495074 2 493 C3.27230469 492.30777344 3.27230469 492.30777344 4.5703125 491.6015625 C28.10211549 478.59759076 49.31680245 461.11769196 66 440 C66.48291504 439.3915625 66.96583008 438.783125 67.46337891 438.15625 C86.91175758 413.22076616 98.27710733 383.38706011 106 353 C106.82242187 352.97421875 107.64484375 352.9484375 108.4921875 352.921875 C120.23546237 352.325219 129.53162125 349.46837875 138 341 C149.3488971 326.72824811 152.40463993 309.83892553 152.3125 292.0625 C152.30686035 290.92095459 152.3012207 289.77940918 152.29541016 288.60327148 C152.1193529 276.40912732 150.64106851 265.0186542 143 255 C134.77945858 247.98347728 127.51454701 247.2252439 117 248 C111.11448562 249.63377155 107.65407601 254.4069509 104 259 C103.34 259.66 102.68 260.32 102 261 C101.96559814 260.19071045 101.93119629 259.3814209 101.89575195 258.54760742 C101.20093302 243.35961957 100.50777124 228.57983192 95.66845703 214.03271484 C95.18225616 212.5542238 94.73517811 211.06269214 94.31201172 209.56494141 C94.07369629 208.75589355 93.83538086 207.9468457 93.58984375 207.11328125 C93.38093506 206.37505127 93.17202637 205.63682129 92.95678711 204.8762207 C91.71390265 202.43897471 90.48080793 202.04720728 88 201 C85.81758952 199.38666657 83.68323026 197.75299655 81.5625 196.0625 C80.94777832 195.57523438 80.33305664 195.08796875 79.69970703 194.5859375 C43.14328618 165.45313809 15.80100747 133.22638886 -3.375 90.375 C-3.70894775 89.62887451 -4.04289551 88.88274902 -4.38696289 88.11401367 C-6.14288045 84.13010912 -7.70013565 80.16219189 -9 76 C-11.69559382 79.3144498 -14.22730382 82.69577502 -16.6875 86.1875 C-20.14240462 90.96528631 -23.85909538 95.34504194 -27.859375 99.671875 C-29.73985777 101.71707158 -31.529334 103.80808817 -33.3125 105.9375 C-42.01604022 115.87869961 -52.51110563 124.04691342 -63 132 C-63.58620117 132.44843262 -64.17240234 132.89686523 -64.77636719 133.35888672 C-80.58115872 145.40993177 -97.48110395 155.65136607 -115 165 C-115.98468262 165.52851563 -116.96936523 166.05703125 -117.98388672 166.6015625 C-153.71559538 185.70791183 -191.28585516 200.40229504 -229.09402466 214.7979126 C-232.06191877 215.93209256 -235.02415391 217.08066008 -237.98638916 218.22952271 C-239.88690029 218.95672413 -241.79841778 219.65497055 -243.71044922 220.35131836 C-244.7882666 220.76003174 -245.86608398 221.16874512 -246.9765625 221.58984375 C-247.89518066 221.9262085 -248.81379883 222.26257324 -249.76025391 222.60913086 C-253.59660721 224.99148368 -254.37690902 228.54146224 -255.40234375 232.76171875 C-255.59957031 233.83035156 -255.79679687 234.89898437 -256 236 C-256.20753906 236.97582031 -256.41507812 237.95164062 -256.62890625 238.95703125 C-258.08653091 246.57133629 -258.56546955 254.26993192 -259 262 C-261.45066072 259.61726804 -263.6276194 257.22176416 -265.6875 254.5 C-269.64068415 249.88133007 -274.28886473 247.62172733 -280.26171875 246.62109375 C-288.16685773 246.19341607 -294.66915673 249.48019596 -300.5793457 254.55688477 C-310.52352974 264.65828911 -311.34142599 279.97125832 -311.30541992 293.23266602 C-310.95646283 310.94678661 -307.06576974 329.39555556 -294.75 342.8125 C-288.23320194 348.96563746 -280.10912756 351.95283274 -271.3125 352.5625 C-270.13300781 352.64628906 -268.95351563 352.73007812 -267.73828125 352.81640625 C-266.83464844 352.87699219 -265.93101562 352.93757813 -265 353 C-263.25593026 358.17091603 -261.57084256 363.35426972 -259.94140625 368.5625 C-251.26874997 395.9019814 -240.13437252 422.23934106 -221 444 C-220.32839844 444.78117187 -219.65679687 445.56234375 -218.96484375 446.3671875 C-216.69079897 448.96002361 -214.36187967 451.48676291 -212 454 C-211.47164551 454.56235352 -210.94329102 455.12470703 -210.39892578 455.70410156 C-198.54121873 468.21779521 -185.69724353 478.49877526 -170.8671875 487.28125 C-169.92101562 487.8484375 -168.97484375 488.415625 -168 489 C-166.90042969 489.52078125 -165.80085937 490.0415625 -164.66796875 490.578125 C-161.65949108 493.30910033 -161.56993596 493.78769416 -161.30859375 497.640625 C-161.31597485 499.51089576 -161.36102574 501.38127881 -161.4375 503.25 C-161.45973633 504.23057373 -161.48197266 505.21114746 -161.50488281 506.22143555 C-161.89051661 517.69778509 -162.99778778 529.9478522 -169 540 C-169.36222656 540.64453125 -169.72445312 541.2890625 -170.09765625 541.953125 C-174.96101422 549.03250847 -183.39894265 549.74128082 -191.25097656 551.50585938 C-206.5000573 554.96957021 -221.31785947 559.50256857 -236.1875 564.3125 C-237.15679443 564.62256989 -238.12608887 564.93263977 -239.12475586 565.25210571 C-264.25052205 573.31319171 -290.50284617 582.90343942 -311 600 C-311.79535156 600.64453125 -312.59070313 601.2890625 -313.41015625 601.953125 C-325.85235416 612.45323027 -335.11559076 626.5263987 -343.3359375 640.4453125 C-345 643 -345 643 -347 644 C-348.76717837 638.65703977 -349.31836147 633.96883662 -349.3359375 628.359375 C-349.34431641 627.53247162 -349.35269531 626.70556824 -349.36132812 625.85360718 C-349.38094286 623.1522124 -349.38088138 620.45145472 -349.375 617.75 C-349.37445618 616.81750427 -349.37391235 615.88500854 -349.37335205 614.92425537 C-349.32393772 596.38597548 -347.76582195 578.31664683 -345 560 C-344.89109436 559.27570801 -344.78218872 558.55141602 -344.66998291 557.80517578 C-342.51275891 543.56129689 -340.07256784 529.36844072 -337.3046875 515.23046875 C-327.10996476 463.11979009 -322.24811113 411.89819927 -321.63584805 358.82587242 C-320.54009734 264.42893898 -320.54009734 264.42893898 -315 224 C-314.89322937 223.21425598 -314.78645874 222.42851196 -314.67645264 221.61895752 C-306.78728738 163.96692059 -291.22726111 106.33449558 -253 61 C-252.53948242 60.45069824 -252.07896484 59.90139648 -251.60449219 59.33544922 C-240.05855481 45.58798744 -240.05855481 45.58798744 -234 40 C-233.44828125 39.48953125 -232.8965625 38.9790625 -232.328125 38.453125 C-230.25338535 36.59117916 -228.13525533 34.79239239 -226 33 C-225.50032715 32.57589844 -225.0006543 32.15179688 -224.48583984 31.71484375 C-214.27753607 23.09943134 -203.47716398 15.81888923 -192 9 C-191.36658691 8.61859863 -190.73317383 8.23719727 -190.08056641 7.84423828 C-138.71615619 -22.72075644 -52.65235034 -32.3329926 0 0 Z " fill="#2D2D2D" transform="translate(587,132)"/>
<path d="M0 0 C0.97665332 2.92995997 1.00052367 4.26194816 0.8125 7.25 C0.70154047 22.4292633 7.46310998 34.81811732 17.58984375 45.62109375 C40.05903818 67.79895341 70.17698667 74.26049978 100.74633789 74.2487793 C109.78086716 74.15293868 118.23722422 73.15568528 127 71 C128.04462402 70.75056641 128.04462402 70.75056641 129.11035156 70.49609375 C144.65545247 66.67874291 161.35143047 60.01010843 172.66796875 48.26953125 C174 47 174 47 176 47 C176.27328125 46.401875 176.5465625 45.80375 176.828125 45.1875 C177.96160476 43.07167111 179.09173136 41.71176118 180.75 40 C191.03594951 28.27704283 192.31843077 14.77929059 193 0 C197.90597017 1.14148811 202.80923425 2.29371971 207.70996094 3.45751953 C209.67283677 3.92249929 211.63706913 4.38174606 213.6015625 4.83984375 C256.83122744 15.23988509 304.72792625 27.77469737 337 60 C337.76570312 60.75410156 338.53140625 61.50820313 339.3203125 62.28515625 C352.36875258 75.91820386 363.43386804 94.31380584 370 112 C303.81111212 169.63865161 221.14766787 207.75581738 133 214 C132.25186035 214.05639648 131.5037207 214.11279297 130.73291016 214.17089844 C106.20033805 215.94991783 81.44373927 215.65808744 57 213 C55.99984863 212.89816406 54.99969727 212.79632812 53.96923828 212.69140625 C-15.87771201 205.54006737 -83.97248596 180.09565679 -141 139 C-141.68078613 138.50999512 -142.36157227 138.01999023 -143.06298828 137.51513672 C-151.87347088 131.13343442 -160.06432591 124.44850832 -168 117 C-170.6493028 114.64647264 -173.32030091 112.31882271 -176 110 C-168.65410053 94.14423811 -159.59846355 79.11223361 -148 66 C-147.319375 65.17628906 -146.63875 64.35257813 -145.9375 63.50390625 C-136.27250229 52.11555417 -124.22380586 43.78511147 -111 37 C-110.31905273 36.64728027 -109.63810547 36.29456055 -108.93652344 35.93115234 C-95.41525183 29.01180184 -81.36557649 23.87102798 -67 19 C-65.82421387 18.5963623 -64.64842773 18.19272461 -63.43701172 17.77685547 C-42.57093327 10.6526 -21.44567878 5.08918373 0 0 Z " fill="#293BA4" transform="translate(410,679)"/>
<path d="M0 0 C1.03125 0.804375 2.0625 1.60875 3.125 2.4375 C31.91772354 23.91778582 64.50956903 32.59130711 100.1875 28 C120.43908914 25.04222206 141.64375499 17.66399574 157.36328125 4.25 C159 3 159 3 161 3 C161 2.34 161 1.68 161 1 C161.66 1 162.32 1 163 1 C163.12117187 2.0621875 163.24234375 3.124375 163.3671875 4.21875 C164.5030157 20.73437946 164.5030157 20.73437946 172.59375 34.2734375 C173.1403125 34.67820312 173.686875 35.08296875 174.25 35.5 C177.09923916 38.15398673 177.43653405 40.63735418 177.61791992 44.46801758 C177.66249662 57.65503496 173.76946904 68.35358788 166 79 C165.57332031 79.61101562 165.14664063 80.22203125 164.70703125 80.8515625 C149.52686122 100.56242943 121.90742761 109.95682635 98.3203125 113.5625 C66.8401436 117.24980372 32.99919449 111.2254602 7.74609375 91.3046875 C-5.84658361 79.89689285 -14.32115099 66.80088728 -16.33984375 49.00390625 C-16.55715366 43.1539235 -15.52680816 39.86654707 -11.60546875 35.41796875 C-7.17465493 30.08977492 -5.52629521 24.86880006 -3.859375 18.171875 C-3 15 -3 15 -1.9296875 12.9375 C-0.69811382 10.37085905 -0.57706533 8.0789146 -0.375 5.25 C-0.30023438 4.26515625 -0.22546875 3.2803125 -0.1484375 2.265625 C-0.09945313 1.51796875 -0.05046875 0.7703125 0 0 Z " fill="#FECF9E" transform="translate(426,640)"/>
<path d="M0 0 C3.80044416 -0.10483984 7.31885769 -0.00443361 11 1 C12.59822628 2.89485 13.26622766 4.62777118 14.140625 6.9375 C15.95964794 11.30315504 19.39503036 13.28474179 23.515625 15.12109375 C38.96529564 21.01182013 54.78934207 21.23506314 71.125 21.25 C71.89424805 21.25100708 72.66349609 21.25201416 73.45605469 21.25305176 C100.81773716 21.3318913 100.81773716 21.3318913 125 10 C127.14546647 7.0407359 128.18684357 4.52119113 129 1 C130.95689659 0.77857745 132.91561952 0.5732432 134.875 0.375 C136.51082031 0.20097656 136.51082031 0.20097656 138.1796875 0.0234375 C139.11039063 0.01570313 140.04109375 0.00796875 141 0 C143.63385766 2.63385766 143.39026024 3.93957307 143.5 7.625 C143.24385757 23.0447744 135.16154697 35.66638074 124.9375 46.625 C109.43184007 61.56183817 88.42465242 67.57597976 67.28125 67.20703125 C48.94150275 66.52886002 32.90652597 59.89851761 19 48 C18.33613281 47.43667969 17.67226563 46.87335937 16.98828125 46.29296875 C5.30449302 35.50187445 -0.84651951 20.84176587 -2.15234375 5.171875 C-2 3 -2 3 0 0 Z " fill="#2B2B2C" transform="translate(436,509)"/>
<path d="M0 0 C4.21575641 1.30949011 8.18932648 2.92885223 12.21533203 4.71606445 C23.22010682 9.56370552 34.34392944 13.08893356 46 16 C46.67047363 16.17934082 47.34094727 16.35868164 48.03173828 16.54345703 C70.52110338 22.43032749 97.67397359 20.46695657 120 15 C120.75442383 14.81808105 121.50884766 14.63616211 122.28613281 14.44873047 C134.82724227 11.32044213 149.21093452 7.19271032 160 0 C160.99 0 161.98 0 163 0 C163 4.95 163 9.9 163 15 C162.34 15 161.68 15 161 15 C161 15.66 161 16.32 161 17 C134.39618378 38.95725927 98.59157807 46.6625011 64.84985352 43.53271484 C42.10662062 40.99662929 20.6807832 31.32470861 3 17 C2.39542969 16.56429687 1.79085938 16.12859375 1.16796875 15.6796875 C-0.77062826 12.89173863 -0.27874678 10.12779965 -0.1875 6.8125 C-0.16042969 5.54019531 -0.13335937 4.26789062 -0.10546875 2.95703125 C-0.07066406 1.98121094 -0.03585937 1.00539063 0 0 Z " fill="#F0B180" transform="translate(426,626)"/>
<path d="M0 0 C0.74378906 0.51304687 1.48757813 1.02609375 2.25390625 1.5546875 C2.83011719 2.03164063 3.40632812 2.50859375 4 3 C4 3.66 4 4.32 4 5 C-7.62693469 11.14929023 -19.56680161 17.4581567 -33 18 C-34.14855469 18.0515625 -35.29710937 18.103125 -36.48046875 18.15625 C-53.25441434 18.66303463 -69.05461236 15.45635661 -83.453125 6.46875 C-83.96359375 5.9840625 -84.4740625 5.499375 -85 5 C-85 4.01 -85 3.02 -85 2 C-82.67634696 0.19848188 -80.43326272 -1.34505349 -77.9375 -2.875 C-77.22029785 -3.31900146 -76.5030957 -3.76300293 -75.76416016 -4.22045898 C-51.2687142 -18.83992065 -22.89581332 -16.59379738 0 0 Z " fill="#FB3046" transform="translate(548,558)"/>
<path d="M0 0 C0.79317627 0.06058594 1.58635254 0.12117188 2.40356445 0.18359375 C22.10746509 1.62964954 41.74248639 2.20048069 61.5 2.1875 C62.57665924 2.1882251 63.65331848 2.1889502 64.76260376 2.18969727 C82.57086709 2.18834007 100.25538181 1.49730171 118 0 C117.28600132 5.2384189 116.13994232 8.58846624 112 12 C97.40425958 20.8322942 79.63764762 21.17565394 63.08154297 21.13037109 C60.76913802 21.12504409 58.45693004 21.13032411 56.14453125 21.13671875 C16.64380829 21.15999882 16.64380829 21.15999882 4.453125 9.5234375 C1.65457805 6.45761359 0.64552902 4.02266505 0 0 Z " fill="#FDFCFC" transform="translate(447,510)"/>
<path d="M0 0 C6.03113214 4.69765928 10.84785254 9.93947206 12.125 17.6875 C12.125 21.3125 12.125 21.3125 10.125 24.3125 C6.82366975 24.84992585 4.35652633 25.01108511 1.37158203 23.31787109 C-0.42680735 21.94534852 -2.124301 20.50589629 -3.8125 19 C-11.89322111 11.90763436 -18.61344206 9.62103569 -29.484375 9.91015625 C-38.17090204 10.94093077 -43.87484335 16.78833179 -50.1015625 22.51953125 C-53.6200341 24.79414881 -55.76181098 24.8742776 -59.875 24.3125 C-61.98461067 21.14808399 -62.20631879 19.99261615 -61.53515625 16.3359375 C-58.77045895 7.86189489 -51.76764684 0.93186433 -44.05859375 -3.1953125 C-29.00925123 -10.20898744 -13.93316716 -9.42040047 0 0 Z " fill="#2B2A2B" transform="translate(441.875,400.6875)"/>
<path d="M0 0 C5.78636498 4.09000258 11.60494468 9.64364453 14.3125 16.3125 C14.5625 19.9375 14.5625 19.9375 14.3125 23.3125 C12.3125 25.3125 12.3125 25.3125 9.59375 25.73828125 C5.34878692 25.18744676 2.96545423 23.19236828 -0.1875 20.5 C-8.56083784 13.52884819 -15.34808591 10.84586099 -26.3125 10.98046875 C-35.36092663 11.87064961 -41.50869592 17.52857451 -47.94921875 23.51953125 C-51.4462514 25.8093144 -53.58574375 25.87205156 -57.6875 25.3125 C-59.91468105 21.97172842 -59.97106343 20.38760448 -59.34375 16.48828125 C-56.80513276 8.07155623 -48.17862684 0.77576081 -40.74609375 -3.30078125 C-26.66290213 -9.4351776 -12.91964707 -7.90145366 0 0 Z " fill="#2A2A2B" transform="translate(620.6875,399.6875)"/>
<path d="M0 0 C5.94733855 4.59891795 10.8138133 9.76759495 14.9765625 16.01171875 C14.4815625 17.49671875 14.4815625 17.49671875 13.9765625 19.01171875 C12.935 18.42003906 11.8934375 17.82835937 10.8203125 17.21875 C-9.75189511 5.77818231 -28.90334946 2.6555385 -52.2734375 2.94921875 C-54.95765382 2.97686382 -57.64181844 3.00149379 -60.32611084 3.020401 C-61.98326538 3.03264633 -63.64039083 3.05023854 -65.29742432 3.07371521 C-67.20613267 3.09058859 -69.1151793 3.05647278 -71.0234375 3.01171875 C-72.0234375 2.01171875 -72.0234375 2.01171875 -72.3984375 -0.80078125 C-72.0234375 -3.98828125 -72.0234375 -3.98828125 -70.2109375 -6.11328125 C-49.34753542 -18.38587071 -19.58983382 -12.88272018 0 0 Z " fill="#2B2A2B" transform="translate(633.0234375,346.98828125)"/>
<path d="M0 0 C1.02029297 -0.01611328 2.04058594 -0.03222656 3.09179688 -0.04882812 C11.97366798 -0.0544962 21.2097338 1.16258162 28.0625 7.3125 C29.0625 10.4375 29.0625 10.4375 29.0625 13.3125 C27.0625 15.3125 27.0625 15.3125 23.23388672 15.49194336 C21.56984818 15.47120473 19.90591547 15.44060081 18.2421875 15.40234375 C16.40755524 15.38187696 14.57291966 15.36170494 12.73828125 15.34179688 C9.86005032 15.29879106 6.98203467 15.25084802 4.10400391 15.19604492 C-19.61971385 14.77661323 -38.29491031 19.54657198 -58.9375 31.3125 C-58.12501357 24.58559027 -53.74933328 20.75158563 -48.9375 16.3125 C-34.46389549 5.48593831 -17.96453708 -0.05652781 0 0 Z " fill="#29292A" transform="translate(422.9375,334.6875)"/>
<path d="M0 0 C3.45319373 1.03595812 6.46323539 2.24824541 9.56640625 4.046875 C14.49840612 6.53498898 18.99581221 6.59416042 24.4375 6.5 C25.32759766 6.51546875 26.21769531 6.5309375 27.13476562 6.546875 C32.79822141 6.51377957 36.97131017 5.53350295 42.01196289 2.93676758 C45.0185252 1.52006863 47.69677705 1.20645143 51 1 C51.495 1.495 51.495 1.495 52 2 C51.7169632 7.66073591 51.25620696 10.96206007 47 15 C37.85536963 21.97506174 28.27122066 23.01428307 17 22 C10.32808406 20.40670664 4.55705104 17.17846709 0 12 C-2.03448248 8.54137978 -2.34996128 6.02455475 -2 2 C-1.34 1.34 -0.68 0.68 0 0 Z " fill="#F0B181" transform="translate(482,470)"/>
<path d="M0 0 C0.33 0.99 0.66 1.98 1 3 C6.28 3 11.56 3 17 3 C17 14.22 17 25.44 17 37 C18.485 37.495 18.485 37.495 20 38 C16.75136475 39.08287842 16.12655906 38.85269793 13 38 C11.68 38 10.36 38 9 38 C9 39.65 9 41.3 9 43 C6.74390185 39.61585277 6.28907022 37.22326153 5.52734375 33.2421875 C5.39936905 32.57970001 5.27139435 31.91721252 5.13954163 31.23464966 C4.86997131 29.83153248 4.60372824 28.42777256 4.34057617 27.0234375 C3.94257755 24.90206386 3.5337472 22.78300944 3.12304688 20.6640625 C1.80626097 13.79685854 0.62874804 6.97056472 0 0 Z " fill="#101010" transform="translate(907,378)"/>
<path d="M0 0 C11.22 0 22.44 0 34 0 C34.495 7.92 34.495 7.92 35 16 C27.20683851 15.35299312 19.66350265 14.10328629 12 12.5625 C10.30423828 12.23668945 10.30423828 12.23668945 8.57421875 11.90429688 C7.49785156 11.68966797 6.42148437 11.47503906 5.3125 11.25390625 C4.33925781 11.06127197 3.36601563 10.8686377 2.36328125 10.67016602 C0 10 0 10 -2 8 C-1.34 8 -0.68 8 0 8 C0 5.36 0 2.72 0 0 Z " fill="#111010" transform="translate(578,71)"/>
<path d="M0 0 C11.22 0 22.44 0 34 0 C34 1.32 34 2.64 34 4 C34.79664063 3.98839844 35.59328125 3.97679688 36.4140625 3.96484375 C46.93848858 3.87521968 46.93848858 3.87521968 52 5 C52 5.33 52 5.66 52 6 C44.56849115 6.13907038 37.27718254 5.68025648 29.875 5.0625 C11.28017897 3.6066503 -7.35778378 3.34689752 -26 3 C-26 2.67 -26 2.34 -26 2 C-17.42 2 -8.84 2 0 2 C0 1.34 0 0.68 0 0 Z " fill="#0C100B" transform="translate(509,71)"/>
<path d="M0 0 C2.14008755 3.21013133 3.30230461 6.37438493 4.5 10 C4.72067139 10.66265869 4.94134277 11.32531738 5.16870117 12.00805664 C6.97448895 17.59221155 8.18984884 23.18384018 9 29 C7.03533587 30.06775224 5.03144641 31.06553465 3 32 C2.34 31.67 1.68 31.34 1 31 C0.67 20.77 0.34 10.54 0 0 Z " fill="#1F3394" transform="translate(696,814)"/>
<path d="M0 0 C0.33 0 0.66 0 1 0 C-0.42056075 22.8411215 -0.42056075 22.8411215 -3 28 C-5.86724686 27.42655063 -6.8614515 27.1385485 -9 25 C-7.69233076 21.01922912 -6.37806177 17.04066885 -5.0625 13.0625 C-4.50272461 11.35803711 -4.50272461 11.35803711 -3.93164062 9.61914062 C-3.57392578 8.53955078 -3.21621094 7.45996094 -2.84765625 6.34765625 C-2.51773682 5.34742432 -2.18781738 4.34719238 -1.84790039 3.31665039 C-1 1 -1 1 0 0 Z " fill="#1E3393" transform="translate(317,815)"/>
<path d="M0 0 C5.61 0 11.22 0 17 0 C17 0.66 17 1.32 17 2 C32.84 2.495 32.84 2.495 49 3 C49 3.33 49 3.66 49 4 C43.16504217 4.02483449 37.33011554 4.04292349 31.49511719 4.05493164 C29.51268986 4.05994103 27.53026618 4.0667504 25.54785156 4.07543945 C22.68814182 4.08765429 19.8284812 4.09326239 16.96875 4.09765625 C16.09134155 4.10281754 15.21393311 4.10797882 14.30993652 4.11329651 C9.11374994 4.11376359 4.14282427 3.75216408 -1 3 C-0.67 2.01 -0.34 1.02 0 0 Z " fill="#322236" transform="translate(474,71)"/>
<path d="M0 0 C0.33 0 0.66 0 1 0 C1.14547214 5.10042343 1.28771197 10.20092434 1.42724609 15.30151367 C1.4749093 17.02842506 1.52338182 18.75531435 1.57275391 20.48217773 C1.90111771 31.99166427 2.06716529 43.48581782 2 55 C-0.75932242 51.8790173 -1.36151502 50.00473341 -1.2487793 45.86425781 C-1.22853195 44.84350159 -1.20828461 43.82274536 -1.18742371 42.77105713 C-1.13138725 41.12868073 -1.13138725 41.12868073 -1.07421875 39.453125 C-1.04777786 38.3267865 -1.02133698 37.200448 -0.99409485 36.03997803 C-0.90633054 32.44277969 -0.79717849 28.84659043 -0.6875 25.25 C-0.62424158 22.81123407 -0.56237552 20.37243159 -0.50195312 17.93359375 C-0.35078917 11.95521124 -0.18206193 5.97751702 0 0 Z " fill="#050C04" transform="translate(93,464)"/>
<path d="M0 0 C5.08938811 1.59043379 8.87456643 4.7446951 13 8 C10.11788698 8.96070434 8.30149956 9.10581883 5.3125 9.0625 C4.10013672 9.04896484 4.10013672 9.04896484 2.86328125 9.03515625 C1.94095703 9.01775391 1.94095703 9.01775391 1 9 C1.020625 7.88625 1.04125 6.7725 1.0625 5.625 C1.26380718 2.16784079 1.26380718 2.16784079 0 0 Z " fill="#0F0E0C" transform="translate(264,815)"/>
<path d="M0 0 C0.33 0.66 0.66 1.32 1 2 C0.67 2.66 0.34 3.32 0 4 C-0.22950319 6.204364 -0.41075933 8.41392173 -0.5625 10.625 C-0.64628906 11.81351563 -0.73007812 13.00203125 -0.81640625 14.2265625 C-0.87699219 15.14179687 -0.93757812 16.05703125 -1 17 C-2.98 17.33 -4.96 17.66 -7 18 C-6.44380331 13.3110507 -5.11817327 9.80075733 -2.9375 5.625 C-2.38964844 4.56539062 -1.84179688 3.50578125 -1.27734375 2.4140625 C-0.85582031 1.61742187 -0.43429687 0.82078125 0 0 Z " fill="#0F0F0F" transform="translate(890,636)"/>
<path d="M0 0 C0 3 0 3 -1.31347656 4.66992188 C-2.21791504 5.5603418 -2.21791504 5.5603418 -3.140625 6.46875 C-4.12869141 7.44908203 -4.12869141 7.44908203 -5.13671875 8.44921875 C-5.83410156 9.12597656 -6.53148437 9.80273438 -7.25 10.5 C-7.93191406 11.17675781 -8.61382813 11.85351562 -9.31640625 12.55078125 C-12.41735363 15.60355858 -15.47098453 18.44229105 -19 21 C-19.66 20.67 -20.32 20.34 -21 20 C-16.06926666 14.96654304 -11.07803264 10.09753799 -5.73046875 5.5078125 C-3.72531622 3.76065928 -1.84156687 1.91829882 0 0 Z " fill="#0A0C09" transform="translate(803,768)"/>
<path d="M0 0 C0.66 0.33 1.32 0.66 2 1 C-3.61 6.61 -9.22 12.22 -15 18 C-15.66 17.34 -16.32 16.68 -17 16 C-11.5184171 10.41915303 -6.03331362 4.98404168 0 0 Z " fill="#272A25" transform="translate(360,166)"/>
<path d="M0 0 C1.32 0 2.64 0 4 0 C3.35534798 4.33304076 1.81074878 7.86672065 -0.0625 11.8125 C-0.61035156 12.97394531 -1.15820312 14.13539063 -1.72265625 15.33203125 C-2.14417969 16.21246094 -2.56570312 17.09289062 -3 18 C-3.33 17.34 -3.66 16.68 -4 16 C-3.71125 15.34 -3.4225 14.68 -3.125 14 C-1.75680827 10.35148872 -1.52633743 6.97559387 -1.24609375 3.109375 C-1 1 -1 1 0 0 Z " fill="#0C0F0C" transform="translate(127,312)"/>
<path d="M0 0 C0 3.63787651 -0.67888836 4.13064655 -3.0625 6.75 C-3.69414063 7.44609375 -4.32578125 8.1421875 -4.9765625 8.859375 C-7.9198308 11.97310285 -10.92869131 15.01270887 -14 18 C-14.66 17.67 -15.32 17.34 -16 17 C-15.34773437 16.35933594 -14.69546875 15.71867188 -14.0234375 15.05859375 C-9.116741 10.20255636 -4.39695434 5.32262894 0 0 Z " fill="#0C0F19" transform="translate(649,577)"/>
<path d="M0 0 C2.97 0.495 2.97 0.495 6 1 C6.268125 2.093125 6.53625 3.18625 6.8125 4.3125 C7.87663739 7.61692663 8.34654664 8.94960422 11 11 C10.67 11.66 10.34 12.32 10 13 C8.32722165 11.21371169 6.66175557 9.4214925 5 7.625 C4.28457031 6.86316406 4.28457031 6.86316406 3.5546875 6.0859375 C0 2.2265625 0 2.2265625 0 0 Z " fill="#0C100C" transform="translate(814,208)"/>
<path d="M0 0 C0 4.15560231 -2.2820452 5.84099329 -5 8.6875 C-5.47695313 9.19861328 -5.95390625 9.70972656 -6.4453125 10.23632812 C-7.62359915 11.49709484 -8.81095253 12.74937686 -10 14 C-10.66 13.67 -11.32 13.34 -12 13 C-10.18777319 11.02058257 -8.37523172 9.04145495 -6.5625 7.0625 C-6.04623047 6.49853516 -5.52996094 5.93457031 -4.99804688 5.35351562 C-1.11328125 1.11328125 -1.11328125 1.11328125 0 0 Z " fill="#0B0C0B" transform="translate(816,754)"/>
<path d="M0 0 C0.99 0.33 1.98 0.66 3 1 C2.38125 1.0825 1.7625 1.165 1.125 1.25 C-1.17972859 1.79394438 -1.17972859 1.79394438 -2.0625 4 C-2.371875 4.66 -2.68125 5.32 -3 6 C-3.99 6.33 -4.98 6.66 -6 7 C-5.67 8.32 -5.34 9.64 -5 11 C-5.66 11 -6.32 11 -7 11 C-7.3125 8.25 -7.3125 8.25 -7 5 C-4.77538218 2.83392475 -2.76622478 1.38311239 0 0 Z " fill="#191A1F" transform="translate(568,338)"/>
<path d="M0 0 C0 0.33 0 0.66 0 1 C-1.57914015 1.53341184 -3.16354387 2.05125763 -4.75 2.5625 C-5.63171875 2.85253906 -6.5134375 3.14257812 -7.421875 3.44140625 C-10.07834316 4.01697435 -11.47031106 3.89248371 -14 3 C-9.0469453 -0.92828476 -6.21396078 -1.05520089 0 0 Z " fill="#F6D4A4" transform="translate(304,380)"/>
<path d="M0 0 C-3.60294356 3.30269826 -7.37059024 4.00540025 -12 5 C-13.33441641 5.32897071 -14.66807749 5.66107329 -16 6 C-11.97674649 1.03009861 -6.15921636 -0.45067437 0 0 Z " fill="#17181E" transform="translate(412,394)"/>
<path d="M0 0 C0.66 0.33 1.32 0.66 2 1 C-0.80627778 5.74908547 -3.25091453 8.19372222 -8 11 C-6.63629701 8.00779732 -5.05091917 5.70973471 -2.875 3.25 C-2.33617187 2.63640625 -1.79734375 2.0228125 -1.2421875 1.390625 C-0.62730469 0.70226562 -0.62730469 0.70226562 0 0 Z " fill="#283DB2" transform="translate(267,739)"/>
<path d="M0 0 C0.33 0.66 0.66 1.32 1 2 C-2.11016455 5.28788824 -5.01618925 7.83735988 -9 10 C-7.61811547 6.78956118 -6.07578097 4.95063635 -3.375 2.75 C-2.74335937 2.22921875 -2.11171875 1.7084375 -1.4609375 1.171875 C-0.73777344 0.59179688 -0.73777344 0.59179688 0 0 Z " fill="#FBE0AB" transform="translate(581,415)"/>
<path d="M0 0 C0.33 0 0.66 0 1 0 C1 5.28 1 10.56 1 16 C0.01 15.01 -0.98 14.02 -2 13 C-1.85546875 9.86328125 -1.85546875 9.86328125 -1.1875 6.3125 C-0.97480469 5.13300781 -0.76210938 3.95351563 -0.54296875 2.73828125 C-0.36378906 1.83464844 -0.18460937 0.93101562 0 0 Z " fill="#101219" transform="translate(327,378)"/>
<path d="M0 0 C0.66 0.33 1.32 0.66 2 1 C0.90081184 1.98475214 -0.2045602 2.96260473 -1.3125 3.9375 C-1.92738281 4.48277344 -2.54226563 5.02804687 -3.17578125 5.58984375 C-5 7 -5 7 -8 8 C-6.49776416 3.79373966 -3.71449966 2.26099979 0 0 Z " fill="#110D0B" transform="translate(756,810)"/>
<path d="M0 0 C1.65 1.65 3.3 3.3 5 5 C4.67 5.99 4.34 6.98 4 8 C0.535 6.02 0.535 6.02 -3 4 C-1 3 -1 3 1 3 C0.67 2.01 0.34 1.02 0 0 Z " fill="#14141B" transform="translate(643,358)"/>
<path d="M0 0 C-0.639375 0.28875 -1.27875 0.5775 -1.9375 0.875 C-4.15206079 1.82823451 -4.15206079 1.82823451 -5 4 C-7.50357861 3.1654738 -9.66785852 2.20628008 -12 1 C-8.0186217 -0.3271261 -4.14954773 -0.06915913 0 0 Z " fill="#0C0F09" transform="translate(583,888)"/>
<path d="M0 0 C0.66 0.33 1.32 0.66 2 1 C-0.64 3.64 -3.28 6.28 -6 9 C-6.99 8.67 -7.98 8.34 -9 8 C-6.03 5.36 -3.06 2.72 0 0 Z " fill="#F8E2AD" transform="translate(397,417)"/>
<path d="M0 0 C0.33 0.99 0.66 1.98 1 3 C1.66 3.33 2.32 3.66 3 4 C0.69 5.32 -1.62 6.64 -4 8 C-3.50168276 4.31245243 -2.89932357 2.39509338 0 0 Z " fill="#1D1C1F" transform="translate(368,358)"/>
<path d="M0 0 C0 4.38968456 -2.12805101 5.76905739 -5 9 C-5.33 8.34 -5.66 7.68 -6 7 C-4.02 4.69 -2.04 2.38 0 0 Z " fill="#1C1B22" transform="translate(649,577)"/>
<path d="M0 0 C0.33 1.32 0.66 2.64 1 4 C-1.97 6.475 -1.97 6.475 -5 9 C-3.7508258 5.54074837 -2.32472205 2.85306797 0 0 Z " fill="#1A1A1F" transform="translate(665,555)"/>
<path d="M0 0 C1.65 0 3.3 0 5 0 C5 0.99 5 1.98 5 3 C3.35 3.33 1.7 3.66 0 4 C0 2.68 0 1.36 0 0 Z " fill="#0C0D0A" transform="translate(335,106)"/>
<path d="M0 0 C4.67692308 1.47692308 4.67692308 1.47692308 6.3125 4.125 C6.539375 4.74375 6.76625 5.3625 7 6 C2.32307692 4.52307692 2.32307692 4.52307692 0.6875 1.875 C0.460625 1.25625 0.23375 0.6375 0 0 Z " fill="#3C3DA4" transform="translate(283,825)"/>
<path d="M0 0 C3.16115776 1.36983503 3.9927092 1.9890638 6 5 C5.01 5.495 5.01 5.495 4 6 C3.34 5.67 2.68 5.34 2 5 C2 4.34 2 3.68 2 3 C1.34 3 0.68 3 0 3 C0 2.01 0 1.02 0 0 Z " fill="#383332" transform="translate(376,589)"/>
<path d="M0 0 C0.33 0.99 0.66 1.98 1 3 C-2 5 -2 5 -4.1875 4.625 C-4.785625 4.41875 -5.38375 4.2125 -6 4 C-6 3.34 -6 2.68 -6 2 C-4.02 1.34 -2.04 0.68 0 0 Z " fill="#EFC99B" transform="translate(571,423)"/>
<path d="M0 0 C0.33 0.66 0.66 1.32 1 2 C1.99 1.67 2.98 1.34 4 1 C2.92598892 3.91517292 2.22189824 5.77810176 0 8 C0 5.36 0 2.72 0 0 Z " fill="#201F23" transform="translate(689,385)"/>
<path d="M0 0 C0 0.66 0 1.32 0 2 C-2.75 3.625 -2.75 3.625 -6 5 C-8.375 4.1875 -8.375 4.1875 -10 3 C-8.70990357 2.49596232 -7.41786211 1.99690074 -6.125 1.5 C-5.04605469 1.08234375 -5.04605469 1.08234375 -3.9453125 0.65625 C-2 0 -2 0 0 0 Z " fill="#EAD2A2" transform="translate(354,348)"/>
<path d="M0 0 C2.31 0.33 4.62 0.66 7 1 C7.33 2.32 7.66 3.64 8 5 C4.62496331 3.8141763 2.35277269 2.72426311 0 0 Z " fill="#0B0E0A" transform="translate(731,139)"/>
</svg>
