<?xml version="1.0" encoding="UTF-8"?>
<svg version="1.1" xmlns="http://www.w3.org/2000/svg" width="1024" height="1024">
<path d="M0 0 C337.92 0 675.84 0 1024 0 C1024 337.92 1024 675.84 1024 1024 C686.08 1024 348.16 1024 0 1024 C0 686.08 0 348.16 0 0 Z " fill="#FCFCFC" transform="translate(0,0)"/>
<path d="M0 0 C31.71238954 -0.69144952 63.58339357 5.70107626 91.72851562 20.44873047 C97.70540021 23.57244564 103.25712728 25.26628748 109.87890625 26.4140625 C129.93195396 30.25981815 149.89626321 38.29390989 165.12890625 52.1640625 C165.94230469 52.87175781 166.75570313 53.57945312 167.59375 54.30859375 C170.14539404 56.55356871 172.64125693 58.8485147 175.12890625 61.1640625 C175.9075 61.8653125 176.68609375 62.5665625 177.48828125 63.2890625 C190.06224863 75.12338474 199.7945876 90.12799426 208.12890625 105.1640625 C208.77206787 106.30319092 208.77206787 106.30319092 209.42822266 107.46533203 C250.36232689 180.40325526 250.88636765 272.74932778 256.71469212 356.23610878 C257.15276413 362.51451098 257.5975269 368.79242981 258.04296875 375.0703125 C258.75304374 385.10056642 259.44718254 395.13184386 260.12890625 405.1640625 C260.17875671 405.89508179 260.22860718 406.62610107 260.27996826 407.37927246 C260.61007789 412.22385068 260.93381141 417.06881195 261.25390625 421.9140625 C261.32955811 423.0366748 261.40520996 424.15928711 261.4831543 425.31591797 C261.71754501 428.93109669 261.92745724 432.54689401 262.12890625 436.1640625 C262.17200928 436.905354 262.2151123 437.64664551 262.25952148 438.41040039 C263.27196206 456.29685052 263.3493423 474.18486477 263.36914062 492.09423828 C263.37351405 495.45990909 263.38739638 498.82532195 263.41015625 502.19091797 C263.58463537 528.55449837 263.08554858 554.83349541 257.6796875 580.75390625 C256.34687948 587.87400734 256.34687948 587.87400734 258.7109375 594.38671875 C259.44699219 594.99386719 260.18304687 595.60101562 260.94140625 596.2265625 C275.86482815 609.98409206 285.63302618 629.30598632 293.44140625 647.7890625 C293.73756836 648.48112793 294.03373047 649.17319336 294.33886719 649.88623047 C295.35931049 652.43221729 296.15201047 654.59851145 296.0390625 657.36328125 C292.37987406 664.60313477 283.98324008 670.04493847 277.78515625 675 C275.47828048 676.87942526 273.30364378 678.82353346 271.12890625 680.8515625 C259.24837728 691.51848905 245.60648793 700.63210994 232.12890625 709.1640625 C231.41782715 709.61426758 230.70674805 710.06447266 229.97412109 710.52832031 C207.47414626 724.6446236 183.82678669 736.41918543 159.12890625 746.1640625 C157.73260986 746.71634521 157.73260986 746.71634521 156.30810547 747.27978516 C127.72793185 758.44142519 98.07972454 765.63016581 67.75390625 769.9140625 C67.00367188 770.02124603 66.2534375 770.12842957 65.48046875 770.23886108 C47.31115986 772.80612267 29.2784138 773.40120477 10.94140625 773.4140625 C9.93511169 773.41506958 8.92881714 773.41607666 7.89202881 773.41711426 C-9.21973011 773.40559963 -25.90604058 772.53333788 -42.87109375 770.1640625 C-43.85916016 770.03547852 -44.84722656 769.90689453 -45.86523438 769.77441406 C-114.04053789 760.74107142 -179.33194315 731.51041393 -233.87109375 690.1640625 C-234.76803955 689.48561279 -234.76803955 689.48561279 -235.68310547 688.79345703 C-243.181762 683.09204936 -250.3004301 677.11878234 -257.171875 670.67578125 C-260.12593128 667.92692714 -263.16205063 665.29575252 -266.25 662.69921875 C-269.72181669 659.41145017 -269.72181669 659.41145017 -270.87109375 657.1640625 C-270.1328125 654.0546875 -270.1328125 654.0546875 -268.55859375 650.4140625 C-268.28241211 649.76590576 -268.00623047 649.11774902 -267.72167969 648.44995117 C-264.19722846 640.33341589 -260.45563509 631.86248473 -255.74047852 624.36669922 C-254.51857595 621.27093822 -254.90982019 618.8619568 -255.2265625 615.55859375 C-258.1193656 581.12085285 -254.60333947 547.56275592 -248.1109314 513.77160645 C-245.3727364 499.51916377 -243.15477626 485.22075514 -241.12109375 470.8515625 C-240.97852142 469.8505954 -240.8359491 468.8496283 -240.6890564 467.81832886 C-239.71277547 460.93833474 -238.77974302 454.05329299 -237.87109375 447.1640625 C-237.74452393 446.21858551 -237.6179541 445.27310852 -237.48754883 444.29898071 C-234.98632546 425.42715401 -233.49167648 406.49286655 -232.06283951 387.51644897 C-231.86852062 384.94247854 -231.67200602 382.36868373 -231.47494507 379.79492188 C-229.64944526 355.91507917 -228.09132269 332.03872898 -226.84155273 308.12133789 C-222.61332604 227.36783022 -216.01153953 139.40512293 -162.87109375 74.1640625 C-162.35579102 73.52919922 -161.84048828 72.89433594 -161.30957031 72.24023438 C-139.73342064 45.92397058 -112.73462735 27.14128187 -80.87109375 15.1640625 C-80.1651709 14.89400391 -79.45924805 14.62394531 -78.73193359 14.34570312 C-53.44503646 4.81679562 -26.83541777 1.13732346 0 0 Z " fill="#303031" transform="translate(493.87109375,104.8359375)"/>
<path d="M0 0 C0.66 0 1.32 0 2 0 C2.67482422 1.80017578 2.67482422 1.80017578 3.36328125 3.63671875 C10.6946102 22.7957178 19.78340015 40.4977381 32 57 C32.42667969 57.58217285 32.85335938 58.1643457 33.29296875 58.76416016 C38.32766498 65.60166492 43.6823332 72.05653763 49.48046875 78.26953125 C51.47955986 80.43598813 53.40824707 82.6319647 55.328125 84.8671875 C58.86441874 88.92056956 62.62817242 92.6479075 66.5625 96.3125 C67.25359863 96.95840088 67.94469727 97.60430176 68.65673828 98.26977539 C73.08358749 102.3571485 77.62129969 106.23630132 82.375 109.9375 C82.94653809 110.38472412 83.51807617 110.83194824 84.10693359 111.29272461 C86.68674581 113.28940812 89.27324191 115.18251845 91.98828125 116.99609375 C96.82991454 120.36631895 99.38834945 122.72992414 100.57421875 128.62109375 C100.80955322 129.7719043 101.0448877 130.92271484 101.28735352 132.10839844 C102.63319296 139.45772378 103.90793209 146.81578519 105.125 154.1875 C105.52039461 156.5764829 105.9170003 158.96523129 106.31759644 161.35334778 C106.56445462 162.82523247 106.80833693 164.29762018 107.04885864 165.77055359 C107.65157956 169.49790827 107.65157956 169.49790827 109 173 C109.53109375 172.59007812 110.0621875 172.18015625 110.609375 171.7578125 C111.31578125 171.21898437 112.0221875 170.68015625 112.75 170.125 C113.44609375 169.59132813 114.1421875 169.05765625 114.859375 168.5078125 C120.98314739 164.19435238 126.63510878 164.28872077 134 165 C140.68079428 166.98521823 145.18532974 172.68647225 148.4140625 178.58203125 C156.20502579 194.87015626 156.31025165 214.36188862 151.2578125 231.55078125 C146.46541269 244.69267265 138.71301891 254.83190502 126 261 C119.79781342 263.70351723 113.72296299 264.59297301 107 265 C106.56300781 266.76150391 106.56300781 266.76150391 106.1171875 268.55859375 C94.32271962 315.27662289 68.50477505 359.34674 28 387 C26.27910156 387.86818359 26.27910156 387.86818359 24.5234375 388.75390625 C21.04220012 390.57605275 18.5960712 392.04084192 16 395 C12.84077691 408.01171542 17.14291626 424.73304047 22.63671875 436.69921875 C25.77406059 444.2953616 24.64222348 452.12673134 21.875 459.6875 C13.2792389 479.63253899 -1.80940648 493.90412438 -21.71875 502.3984375 C-34.83526693 507.55768523 -48.96820422 511.08777013 -63.07421875 511.23828125 C-63.83192566 511.24802979 -64.58963257 511.25777832 -65.37030029 511.26782227 C-96.90727852 511.59034397 -96.90727852 511.59034397 -112 507 C-113.25683594 506.62617187 -114.51367188 506.25234375 -115.80859375 505.8671875 C-136.61894263 498.98358907 -156.5933977 486.9026269 -167 467 C-171.49465725 457.94045648 -173.11854832 446.69461268 -170.0234375 436.9140625 C-169.16078391 434.98235354 -168.27860201 433.05926837 -167.37890625 431.14453125 C-164.67359953 424.97520572 -163.20641628 418.59754089 -162 412 C-161.85965332 411.30229492 -161.71930664 410.60458984 -161.57470703 409.88574219 C-160.6648456 404.87165233 -160.44188898 400.90144755 -162 396 C-165.74746971 391.90074869 -170.97235877 389.62865393 -175.85791016 387.15771484 C-179.11577633 385.39696702 -181.97923843 383.23360751 -184.875 380.9375 C-185.40270996 380.52411377 -185.93041992 380.11072754 -186.47412109 379.68481445 C-190.7119047 376.31990558 -194.75015047 372.75350199 -198.7265625 369.0859375 C-200.8389424 367.1477745 -202.99998072 365.28976729 -205.1875 363.4375 C-209.1967329 359.9224469 -212.60986792 356.10865718 -216 352 C-216.42265137 351.50032715 -216.84530273 351.0006543 -217.28076172 350.48583984 C-237.98246782 325.96516255 -253.43183035 296.83739225 -259 265 C-260.258125 265.0825 -261.51625 265.165 -262.8125 265.25 C-273.92706879 265.19765509 -282.02417185 259.56327097 -289.8671875 252.26171875 C-302.48610882 239.16608262 -305.5333804 221.52572611 -305.42211914 204.01708984 C-305.04025889 191.74998572 -301.9538237 179.0844801 -293.12890625 170.09375 C-287.52021632 165.14970732 -283.84213041 164.65250877 -276.33203125 164.71875 C-269.06803915 165.33188884 -264.26480161 169.26167855 -259 174 C-258.87496094 172.71867188 -258.74992187 171.43734375 -258.62109375 170.1171875 C-258.05649956 165.05072369 -257.11982717 160.10898085 -256.0625 155.125 C-255.89298828 154.28453125 -255.72347656 153.4440625 -255.54882812 152.578125 C-255.29456055 151.36769531 -255.29456055 151.36769531 -255.03515625 150.1328125 C-254.8844165 149.40980957 -254.73367676 148.68680664 -254.57836914 147.94189453 C-254 146 -254 146 -252 143 C-249.86010742 141.93530273 -249.86010742 141.93530273 -247.10546875 140.93359375 C-246.03167969 140.53986572 -244.95789063 140.1461377 -243.8515625 139.74047852 C-242.64242187 139.31049561 -241.43328125 138.8805127 -240.1875 138.4375 C-238.88920836 137.96768299 -237.59103567 137.49753716 -236.29296875 137.02709961 C-225.07032561 132.98823674 -213.7607869 129.2055327 -202.45629883 125.40356445 C-136.72441691 103.29268152 -33.82660797 67.65321594 0 0 Z " fill="#FED1A2" transform="translate(582,190)"/>
<path d="M0 0 C0.05607422 1.45019531 0.05607422 1.45019531 0.11328125 2.9296875 C1.04022093 21.28672832 6.63399798 33.67743423 20.3828125 46.1640625 C38.55970789 61.30173423 63.48494781 70.06558545 87.15234375 70.203125 C87.92953262 70.20882507 88.7067215 70.21452515 89.50746155 70.22039795 C91.1505499 70.22981081 92.79365681 70.23636709 94.43676758 70.24023438 C96.89895608 70.24984948 99.36027577 70.2808695 101.82226562 70.3125 C111.95282122 70.38059138 121.1570608 69.46737774 131 67 C131.7938208 66.80647949 132.5876416 66.61295898 133.40551758 66.41357422 C152.27389846 61.50904093 172.68643888 51.48000763 184 35 C189.13630367 26.12989994 193.93445868 16.98311979 194.625 6.625 C194.69976563 5.56539062 194.77453125 4.50578125 194.8515625 3.4140625 C194.90054687 2.61742187 194.94953125 1.82078125 195 1 C207.75788427 3.79078718 220.26019733 7.27501667 232.76611328 11.02929688 C234.9509473 11.68510996 237.13685212 12.33736467 239.32373047 12.98632812 C273.2375378 23.06041942 304.84889853 35.74102534 332 59 C332.91007813 59.69867187 333.82015625 60.39734375 334.7578125 61.1171875 C337.2601723 63.21847221 337.29504399 63.97875994 338 67 C339.3241956 67.6846373 340.65901088 68.3488699 342 69 C358.12808454 81.5987836 368.55925439 104.27243159 376.3125 122.625 C376.60866211 123.31706543 376.90482422 124.00913086 377.20996094 124.72216797 C378.23040424 127.26815479 379.02310422 129.43444895 378.91015625 132.19921875 C375.25096781 139.43907227 366.85433383 144.88087597 360.65625 149.8359375 C358.34937423 151.71536276 356.17473753 153.65947096 354 155.6875 C342.11947103 166.35442655 328.47758168 175.46804744 315 184 C314.2889209 184.45020508 313.5778418 184.90041016 312.84521484 185.36425781 C290.34524001 199.4805611 266.69788044 211.25512293 242 221 C241.06913574 221.36818848 240.13827148 221.73637695 239.17919922 222.11572266 C210.5990256 233.27736269 180.95081829 240.46610331 150.625 244.75 C149.87476563 244.85718353 149.12453125 244.96436707 148.3515625 245.07479858 C130.18225361 247.64206017 112.14950755 248.23714227 93.8125 248.25 C92.80620544 248.25100708 91.79991089 248.25201416 90.76312256 248.25305176 C73.65136364 248.24153713 56.96505317 247.36927538 40 245 C39.01193359 244.87141602 38.02386719 244.74283203 37.00585938 244.61035156 C-31.16944414 235.57700892 -96.4608494 206.34635143 -151 165 C-151.59796387 164.5477002 -152.19592773 164.09540039 -152.81201172 163.62939453 C-160.31066825 157.92798686 -167.42933635 151.95471984 -174.30078125 145.51171875 C-177.25483753 142.76286464 -180.29095688 140.13169002 -183.37890625 137.53515625 C-186.85072294 134.24738767 -186.85072294 134.24738767 -188 132 C-187.26171875 128.890625 -187.26171875 128.890625 -185.6875 125.25 C-185.41059326 124.60256836 -185.13368652 123.95513672 -184.84838867 123.28808594 C-182.63889549 118.21384961 -180.2503221 113.21798162 -177.8125 108.25 C-177.31399536 107.23147949 -177.31399536 107.23147949 -176.80541992 106.19238281 C-174.36031704 101.3524651 -174.36031704 101.3524651 -172.38671875 99.421875 C-170.32866768 97.31164799 -169.92059185 94.77876065 -169 92 C-163.84479186 83.27580161 -157.42165498 75.70134382 -150.3984375 68.4453125 C-149.02539521 67.02624645 -147.66876087 65.59136325 -146.3125 64.15625 C-112.56692233 29.23350102 -64.57821466 15.72978719 -19 4 C-18.06510742 3.75701172 -17.13021484 3.51402344 -16.16699219 3.26367188 C-3.60429104 0 -3.60429104 0 0 0 Z " fill="#2E466A" transform="translate(411,630)"/>
<path d="M0 0 C0.83640015 0.36967896 0.83640015 0.36967896 1.68969727 0.74682617 C29.46088045 12.97071112 56.11368074 20.45004871 86.625 20.3125 C87.46382721 20.31067719 88.30265442 20.30885437 89.16690063 20.30697632 C101.65808446 20.26127777 113.78373932 19.82902879 126 17 C126.78777832 16.82307617 127.57555664 16.64615234 128.38720703 16.46386719 C144.35263564 12.79489193 159.26787158 7.11380174 174 0 C174.12117187 1.18078125 174.24234375 2.3615625 174.3671875 3.578125 C174.5360552 5.13546043 174.70534835 6.69274977 174.875 8.25 C174.95363281 9.02730469 175.03226563 9.80460938 175.11328125 10.60546875 C175.55216111 14.55538751 176.09586184 17.48194548 178 21 C178.87015728 24.28686941 179.65593973 27.57850127 180.41210938 30.89257812 C181.23426694 34.35481138 182.15280545 37.34708133 183.59765625 40.62890625 C186.76963222 48.25401839 185.65712558 56.08601495 182.875 63.6875 C174.2792389 83.63253899 159.19059352 97.90412438 139.28125 106.3984375 C126.16473307 111.55768523 112.03179578 115.08777013 97.92578125 115.23828125 C97.16807434 115.24802979 96.41036743 115.25777832 95.62969971 115.26782227 C64.09272148 115.59034397 64.09272148 115.59034397 49 111 C47.11474609 110.43925781 47.11474609 110.43925781 45.19140625 109.8671875 C24.38105737 102.98358907 4.4066023 90.9026269 -6 71 C-10.49465725 61.94045648 -12.11854832 50.69461268 -9.0234375 40.9140625 C-8.16056255 38.98185785 -7.2770252 37.05877223 -6.375 35.14453125 C-1.47530061 23.93925281 -0.32151009 12.08877953 0 0 Z " fill="#FACD9E" transform="translate(421,586)"/>
<path d="M0 0 C4.13211732 1.37981893 6.6669732 3.26200362 9.8125 6.25 C27.9110672 22.8825566 47.87198861 26.18785775 71.77416992 26.18530273 C74.03388809 26.18747253 76.29310313 26.20564158 78.55273438 26.22460938 C104.11122715 26.3242733 124.61751372 22.84062173 144.58984375 6.015625 C145.78287109 5.01789063 145.78287109 5.01789063 147 4 C147.68191406 3.39671875 148.36382813 2.7934375 149.06640625 2.171875 C151 1 151 1 153.25 1.3125 C153.8275 1.539375 154.405 1.76625 155 2 C156.42782097 20.81550751 148.29157116 36.44804578 136.29296875 50.4765625 C120.21791073 68.16734186 97.56952218 76.42181273 74.125 78.3125 C53.80001503 77.547124 32.99671695 67.57158211 19 53 C5.16645027 36.94653942 -0.65503939 20.91273917 0 0 Z " fill="#2E2F30" transform="translate(430,470)"/>
<path d="M0 0 C0 0.66 0 1.32 0 2 C-21.3369367 13.2993239 -42.87649731 21.05288888 -67 14 C-75.47905004 11.00152625 -83.5842968 7.09829595 -91 2 C-87.75586066 -1.75463843 -84.11742717 -3.60602318 -79.625 -5.5 C-78.9239917 -5.80115723 -78.2229834 -6.10231445 -77.50073242 -6.41259766 C-51.65712339 -17.22949942 -23.68596332 -16.16938456 0 0 Z " fill="#F4303E" transform="translate(552,531)"/>
<path d="M0 0 C0.57524918 0.30874054 1.15049835 0.61748108 1.74317932 0.93557739 C8.30326689 4.02962274 16.13423832 4.55276224 23.25390625 5.5078125 C24.2196759 5.6387027 25.18544556 5.7695929 26.18048096 5.90444946 C60.24240456 10.44878743 90.72774197 11.26598324 124.49169922 4.64501953 C128.65891488 3.87885504 132.78122849 3.37238318 137 3 C137 3.66 137 4.32 137 5 C117.03685214 21.7690442 95.43397645 24.18801745 70.04052734 24.18530273 C67.76771113 24.18748301 65.49538679 24.20569043 63.22265625 24.22460938 C41.59359934 24.30995308 20.43682195 21.45728882 4.375 5.6875 C0 1.18461538 0 1.18461538 0 0 Z " fill="#FCFCFC" transform="translate(437,473)"/>
<path d="M0 0 C0.495 0.99 0.495 0.99 1 2 C-3.03109581 13.5278396 -10.57113179 22.01563595 -21.375 27.5625 C-29.38689731 31.29363424 -37.56370173 32.81433107 -46.171875 29.94140625 C-57.8438869 24.47570525 -64.1771958 16.87432853 -69 5 C-69 4.34 -69 3.68 -69 3 C-68.47792969 3.18175781 -67.95585937 3.36351562 -67.41796875 3.55078125 C-65.8340033 4.09171516 -64.24483613 4.61752221 -62.65234375 5.1328125 C-60.98728816 5.67720476 -59.33131728 6.25118031 -57.69140625 6.8671875 C-38.54225601 13.30130198 -17.69127541 8.17551364 0 0 Z " fill="#F6AF76" transform="translate(542,436)"/>
<path d="M0 0 C5.20547736 3.82779952 11.14482919 8.59684601 13.46484375 14.8125 C12.90928819 21.36805556 12.90928819 21.36805556 11.46484375 22.8125 C7.88785236 23.19755856 6.03259993 23.17913879 2.97265625 21.203125 C2.18632812 20.49671875 1.4 19.7903125 0.58984375 19.0625 C-7.11918753 12.49296354 -14.16493598 9.40012888 -24.3515625 9.546875 C-33.56762166 10.31582227 -39.90917768 15.31751933 -46.7734375 21.08203125 C-49.53515625 22.8125 -49.53515625 22.8125 -52.2734375 22.6484375 C-54.85562874 21.69405248 -56.07390288 21.16674153 -57.53515625 18.8125 C-57.74139641 14.37833647 -56.11223041 11.99883438 -53.34765625 8.75 C-38.09307797 -7.45798942 -19.3562434 -12.23143343 0 0 Z " fill="#2D2D2F" transform="translate(439.53515625,376.1875)"/>
<path d="M0 0 C1.05735352 0.00942627 2.11470703 0.01885254 3.20410156 0.02856445 C22.99414825 0.41054705 39.72955589 7.87524779 54.7265625 20.69921875 C56.37899617 22.59465738 56.88443061 23.89296621 57.1875 26.375 C56.1875 27.375 56.1875 27.375 52.69921875 27.70703125 C47.44579769 27.63804575 43.55754694 25.48993004 39 23.0625 C27.07247156 16.73010345 15.56002791 14.88869643 2.18188477 15.09375 C0.09568674 15.12544535 -1.98975465 15.13479227 -4.07617188 15.140625 C-11.52326575 15.07447168 -11.52326575 15.07447168 -18.8125 16.375 C-20.35129581 16.48791505 -21.89462089 16.54959967 -23.4375 16.5625 C-24.60152344 16.58376953 -24.60152344 16.58376953 -25.7890625 16.60546875 C-27.8125 16.375 -27.8125 16.375 -29.8125 14.375 C-30.4375 11.5625 -30.4375 11.5625 -29.8125 8.375 C-22.0418375 0.81549681 -10.21853942 -0.14106346 0 0 Z " fill="#2C2D2F" transform="translate(589.8125,315.625)"/>
<path d="M0 0 C1.16466797 -0.02900391 2.32933594 -0.05800781 3.52929688 -0.08789062 C12.89698946 -0.15573464 21.07114763 1.41140532 29.1875 6.25 C30.9375 8.3125 30.9375 8.3125 31.4375 10.875 C30.83079508 13.83268646 30.42410291 14.60797381 27.9375 16.3125 C25.34422588 16.37115739 23.00379648 16.25475727 20.4375 16 C-3.48371425 14.24189285 -22.74981381 14.20480338 -44.07421875 25.95703125 C-47.07331844 27.31740719 -48.82226026 27.70366408 -52.0625 27.3125 C-53.0625 26.3125 -53.0625 26.3125 -53.375 24.01953125 C-52.84281313 19.40946252 -49.7109822 17.55254743 -46.31640625 14.66015625 C-32.67819621 4.31259821 -16.8289159 0.13652447 0 0 Z " fill="#2C2D2F" transform="translate(423.0625,315.6875)"/>
<path d="M0 0 C5.66129648 3.87592805 10.9200594 8.0184436 14.0859375 14.234375 C14.66628585 17.65198194 14.74663933 19.19116158 12.8984375 22.109375 C10.42027626 23.64754405 8.97231951 23.56546 6.0859375 23.234375 C3.91015625 21.625 3.91015625 21.625 1.7734375 19.484375 C-5.80137487 12.3395186 -13.1565728 9.83134416 -23.5078125 9.96875 C-32.86284032 10.69827052 -39.18329363 15.65139286 -46.15234375 21.50390625 C-48.9140625 23.234375 -48.9140625 23.234375 -51.70703125 23.05859375 C-53.9140625 22.234375 -53.9140625 22.234375 -54.9140625 21.234375 C-55.55008267 16.78223384 -55.11340222 13.9491477 -52.6015625 10.296875 C-39.09519554 -6.06966378 -18.43233674 -11.16811824 0 0 Z " fill="#2D2D2F" transform="translate(616.9140625,374.765625)"/>
<path d="M0 0 C5.47494024 0.65520974 10.90872947 1.43604662 16.34765625 2.33984375 C17.93944762 2.60094502 19.53124468 2.8620116 21.12304688 3.12304688 C23.5820754 3.52813498 26.04098261 3.93394143 28.49975586 4.34057617 C50.28227721 8.06691604 50.28227721 8.06691604 72.3125 9.25 C73.38935059 9.24323242 74.46620117 9.23646484 75.57568359 9.22949219 C91.74993797 9.02240779 107.34382474 6.38964592 123.22753906 3.50244141 C127.46130561 2.73517374 131.69958175 1.99391646 135.9375 1.25 C138.29180352 0.83410195 140.64590916 0.41710066 143 0 C140.20011307 3.5224384 138.69980798 4.88587747 134.19140625 5.62109375 C133.40910645 5.66733887 132.62680664 5.71358398 131.82080078 5.76123047 C128.34347778 6.05557199 125.01178902 6.72542632 121.58984375 7.41015625 C88.2942749 13.91844244 57.73255758 12.04515459 24.25390625 7.5078125 C22.90108551 7.32634171 22.90108551 7.32634171 21.52093506 7.14120483 C6.08014766 4.98385749 6.08014766 4.98385749 1 2 C0.67 1.34 0.34 0.68 0 0 Z " fill="#D8D7D7" transform="translate(436,472)"/>
<path d="M0 0 C3.0741776 2.5530313 3.55945618 3.13282386 4.1875 7.25 C3.625 10.5625 3.625 10.5625 2.625 13.5625 C1.965 13.5625 1.305 13.5625 0.625 13.5625 C0.625 14.8825 0.625 16.2025 0.625 17.5625 C-0.035 17.5625 -0.695 17.5625 -1.375 17.5625 C-2.35984108 15.81568707 -3.33766187 14.0649149 -4.3125 12.3125 C-5.13041016 10.85070312 -5.13041016 10.85070312 -5.96484375 9.359375 C-7.14110835 7.02639591 -7.89601691 5.10899238 -8.375 2.5625 C-9.035 2.5625 -9.695 2.5625 -10.375 2.5625 C-10.375 1.5725 -10.375 0.5825 -10.375 -0.4375 C-6.05355423 -2.81429517 -3.964148 -2.67333112 0 0 Z " fill="#F2C396" transform="translate(319.375,360.4375)"/>
<path d="M0 0 C0.99 0.33 1.98 0.66 3 1 C-10.6332574 14.81776765 -10.6332574 14.81776765 -17 20 C-17.66 19.67 -18.32 19.34 -19 19 C-12.73 12.73 -6.46 6.46 0 0 Z " fill="#212126" transform="translate(642,547)"/>
<path d="M0 0 C0.33 0 0.66 0 1 0 C1.85298376 3.67387495 2.10789471 7.0447393 2.0625 10.8125 C2.05347656 11.78832031 2.04445312 12.76414062 2.03515625 13.76953125 C2.02355469 14.50558594 2.01195312 15.24164062 2 16 C0.515625 14.7421875 0.515625 14.7421875 -1 13 C-1.29390541 8.44446622 -1.11119437 4.44477749 0 0 Z " fill="#363637" transform="translate(239,699)"/>
<path d="M0 0 C0.33 0 0.66 0 1 0 C1.05386629 2.12472576 1.09273071 4.24983652 1.125 6.375 C1.14820313 7.55835938 1.17140625 8.74171875 1.1953125 9.9609375 C1 13 1 13 -1 15 C-2.60725635 11.78548731 -2.05748185 8.56387464 -2 5 C-1.67 5 -1.34 5 -1 5 C-0.67 3.35 -0.34 1.7 0 0 Z " fill="#3A393B" transform="translate(270,390)"/>
<path d="M0 0 C3.63 0 7.26 0 11 0 C11.33 0.66 11.66 1.32 12 2 C11.34 2.66 10.68 3.32 10 4 C10 3.34 10 2.68 10 2 C7.03 2 4.06 2 1 2 C0.67 1.34 0.34 0.68 0 0 Z " fill="#DEC99D" transform="translate(313,453)"/>
<path d="M0 0 C0.33 0 0.66 0 1 0 C1 2.97 1 5.94 1 9 C0.01 9.33 -0.98 9.66 -2 10 C-2.1953125 3.9453125 -2.1953125 3.9453125 -2 2 C-1.34 1.34 -0.68 0.68 0 0 Z " fill="#393939" transform="translate(265,474)"/>
<path d="M0 0 C0.66 0 1.32 0 2 0 C2.33 1.98 2.66 3.96 3 6 C2.01 6 1.02 6 0 6 C-0.99 6.495 -0.99 6.495 -2 7 C-1.125 2.25 -1.125 2.25 0 0 Z " fill="#F6DEAC" transform="translate(582,190)"/>
<path d="M0 0 C0 0.99 0 1.98 0 3 C-3.63 2.67 -7.26 2.34 -11 2 C-11 1.67 -11 1.34 -11 1 C-7.26513121 0.4254048 -3.78706732 0 0 0 Z " fill="#363737" transform="translate(469,107)"/>
<path d="M0 0 C0.33 0 0.66 0 1 0 C1 2.64 1 5.28 1 8 C0.01 8.33 -0.98 8.66 -2 9 C-2.125 5.625 -2.125 5.625 -2 2 C-1.34 1.34 -0.68 0.68 0 0 Z " fill="#3A3B3C" transform="translate(266,460)"/>
<path d="M0 0 C0.33 0.66 0.66 1.32 1 2 C-1.3125 4.5 -1.3125 4.5 -4 7 C-4.99 7 -5.98 7 -7 7 C-4.69 4.69 -2.38 2.38 0 0 Z " fill="#122C5F" transform="translate(592,669)"/>
</svg>
